<svg width="9" height="9" viewBox="0 0 9 9" fill="none" xmlns="http://www.w3.org/2000/svg">
<g clip-path="url(#clip0_216_211)">
<path d="M1.875 5.35738C1.18074 5.66365 0.75 6.09044 0.75 6.5625C0.75 7.49448 2.42893 8.25 4.5 8.25C6.57107 8.25 8.25 7.49448 8.25 6.5625C8.25 6.09044 7.81926 5.66365 7.125 5.35738M6.75 3C6.75 4.52389 5.0625 5.25 4.5 6.375C3.9375 5.25 2.25 4.52389 2.25 3C2.25 1.75736 3.25736 0.75 4.5 0.75C5.74264 0.75 6.75 1.75736 6.75 3ZM4.875 3C4.875 3.20711 4.70711 3.375 4.5 3.375C4.29289 3.375 4.125 3.20711 4.125 3C4.125 2.79289 4.29289 2.625 4.5 2.625C4.70711 2.625 4.875 2.79289 4.875 3Z" stroke="black" stroke-linecap="round" stroke-linejoin="round"/>
</g>
<defs>
<clipPath id="clip0_216_211">
<rect width="9" height="9" fill="white"/>
</clipPath>
</defs>
</svg>
