<svg width="34" height="34" viewBox="0 0 34 34" fill="none" xmlns="http://www.w3.org/2000/svg">
<circle cx="17" cy="17" r="17" fill="#D9D9D9" fill-opacity="0.3"/>
<path fill-rule="evenodd" clip-rule="evenodd" d="M17 8C12.0294 8 8 12.0294 8 17C8 21.9706 12.0294 26 17 26H21.5C22.8978 26 23.5967 26 24.1481 25.7716C24.8831 25.4672 25.4672 24.8831 25.7716 24.1481C26 23.5967 26 22.8978 26 21.5V17C26 12.0294 21.9706 8 17 8ZM13 16C13 15.4477 13.4477 15 14 15H20C20.5523 15 21 15.4477 21 16C21 16.5523 20.5523 17 20 17H14C13.4477 17 13 16.5523 13 16ZM16 20C16 19.4477 16.4477 19 17 19H20C20.5523 19 21 19.4477 21 20C21 20.5523 20.5523 21 20 21H17C16.4477 21 16 20.5523 16 20Z" fill="#222222"/>
</svg>
