<svg width="25" height="9" viewBox="0 0 25 9" fill="none" xmlns="http://www.w3.org/2000/svg">
<path d="M18.6927 5.48119C18.6927 4.4561 18.956 3.65211 19.4826 3.06922C20.0133 2.48633 20.8012 2.19489 21.8464 2.19489C22.8915 2.19489 23.6774 2.48633 24.2041 3.06922C24.7347 3.65211 25 4.4561 25 5.48119C25 6.50627 24.7347 7.31026 24.2041 7.89315C23.6774 8.47604 22.8915 8.76749 21.8464 8.76749C20.8012 8.76749 20.0133 8.47604 19.4826 7.89315C18.956 7.31026 18.6927 6.50627 18.6927 5.48119ZM20.4776 5.48119C20.4776 6.24498 20.5941 6.78767 20.8273 7.10926C21.0645 7.42684 21.4042 7.58562 21.8464 7.58562C22.2886 7.58562 22.6262 7.42684 22.8594 7.10926C23.0966 6.78767 23.2151 6.24498 23.2151 5.48119C23.2151 4.7174 23.0966 4.17672 22.8594 3.85914C22.6262 3.53755 22.2886 3.37675 21.8464 3.37675C21.4042 3.37675 21.0645 3.53755 20.8273 3.85914C20.5941 4.17672 20.4776 4.7174 20.4776 5.48119Z" fill="black"/>
<path d="M14.0075 3.52147C13.7703 3.52147 13.6517 3.42097 13.6517 3.21997V2.61698C13.6517 2.41598 13.7703 2.31548 14.0075 2.31548H14.4175V2.10444C14.4175 1.92354 14.4597 1.75872 14.5441 1.60999L15.0084 0.795948C15.0969 0.64319 15.2014 0.566811 15.322 0.566811H15.7441C15.9853 0.566811 16.1059 0.68741 16.1059 0.928606V2.31548H17.0827C17.3199 2.31548 17.4385 2.41598 17.4385 2.61698V3.21997C17.4385 3.42097 17.3199 3.52147 17.0827 3.52147H16.1059V6.5123C16.1059 6.92233 16.134 7.2178 16.1903 7.3987C16.2506 7.57557 16.4034 7.66401 16.6486 7.66401C16.7732 7.66401 16.9139 7.64391 17.0707 7.60371C17.2274 7.5595 17.3501 7.51729 17.4385 7.47709C17.5792 7.41277 17.6717 7.459 17.7159 7.61577L17.8968 8.30318C17.9329 8.43986 17.8807 8.54036 17.74 8.60468C17.6073 8.66498 17.4244 8.71925 17.1913 8.76749C16.9621 8.81975 16.731 8.84588 16.4978 8.84588C15.923 8.84588 15.4325 8.72729 15.0265 8.49011C14.6205 8.25293 14.4175 7.76451 14.4175 7.02484V3.52147H14.0075Z" fill="black"/>
<path d="M6.60878 5.48119C6.60878 4.4561 6.87209 3.65211 7.3987 3.06922C7.92933 2.48633 8.71724 2.19489 9.76242 2.19489C10.8076 2.19489 11.5935 2.48633 12.1201 3.06922C12.6507 3.65211 12.9161 4.4561 12.9161 5.48119C12.9161 6.50627 12.6507 7.31026 12.1201 7.89315C11.5935 8.47604 10.8076 8.76749 9.76242 8.76749C8.71724 8.76749 7.92933 8.47604 7.3987 7.89315C6.87209 7.31026 6.60878 6.50627 6.60878 5.48119ZM8.39363 5.48119C8.39363 6.24498 8.51021 6.78767 8.74337 7.10926C8.98054 7.42684 9.32023 7.58562 9.76242 7.58562C10.2046 7.58562 10.5423 7.42684 10.7754 7.10926C11.0126 6.78767 11.1312 6.24498 11.1312 5.48119C11.1312 4.7174 11.0126 4.17672 10.7754 3.85914C10.5423 3.53755 10.2046 3.37675 9.76242 3.37675C9.32023 3.37675 8.98054 3.53755 8.74337 3.85914C8.51021 4.17672 8.39363 4.7174 8.39363 5.48119Z" fill="black"/>
<path d="M0.422094 8.64689C0.140698 8.64689 0 8.49614 0 8.19465V0.452243C0 0.150748 0.140698 0 0.422094 0H5.19175C5.49325 0 5.64399 0.130648 5.64399 0.391944V1.10347C5.64399 1.36477 5.49325 1.49542 5.19175 1.49542H1.76073V3.59383H4.6973C4.99879 3.59383 5.14954 3.72447 5.14954 3.98577V4.6973C5.14954 4.95859 4.99879 5.08924 4.6973 5.08924H1.76073V8.19465C1.76073 8.49614 1.62004 8.64689 1.33864 8.64689H0.422094Z" fill="black"/>
</svg>
