<svg width="34" height="34" viewBox="0 0 34 34" fill="none" xmlns="http://www.w3.org/2000/svg">
<circle cx="17" cy="17" r="17" fill="#D9D9D9" fill-opacity="0.3"/>
<path fill-rule="evenodd" clip-rule="evenodd" d="M10.2745 14.175C10 14.7717 10 15.4506 10 16.8084V21.0488C10 22.9344 10 23.8772 10.5858 24.463C11.1173 24.9945 11.9428 25.0437 13.5 25.0483V20.0488C13.5 18.9443 14.3954 18.0488 15.5 18.0488H18.5C19.6046 18.0488 20.5 18.9443 20.5 20.0488V25.0483C22.0572 25.0437 22.8827 24.9945 23.4142 24.463C24 23.8772 24 22.9344 24 21.0488V16.8084C24 15.4506 24 14.7717 23.7255 14.175C23.4511 13.5783 22.9356 13.1365 21.9047 12.2528L20.9047 11.3957C19.0414 9.79856 18.1098 9 17 9C15.8902 9 14.9586 9.79856 13.0953 11.3957L12.0953 12.2528C11.0644 13.1365 10.5489 13.5783 10.2745 14.175ZM18.5 25.0488V20.0488H15.5V25.0488H18.5Z" fill="#222222"/>
</svg>
