<svg width="16" height="18" viewBox="0 0 16 18" fill="none" xmlns="http://www.w3.org/2000/svg">
<path d="M8.60039 1.00772H10.7583C12.1011 1.00772 12.7726 1.00772 13.2854 1.26905C13.7366 1.49893 14.1034 1.86573 14.3333 2.31688C14.5946 2.82977 14.5946 3.50119 14.5946 4.84402V13.156C14.5946 14.4988 14.5946 15.1702 14.3333 15.6831C14.1034 16.1343 13.7366 16.5011 13.2854 16.731C12.7726 16.9923 12.1011 16.9923 10.7583 16.9923H5.64325C4.30042 16.9923 3.629 16.9923 3.11611 16.731C2.66496 16.5011 2.29816 16.1343 2.06828 15.6831C1.80695 15.1702 1.80695 14.4988 1.80695 13.156V12.5965M11.3977 9.79923H7.80116M11.3977 6.60232H8.60039M11.3977 12.9961H5.00386M3.40541 7.40155V3.00579C3.40541 2.34369 3.94215 1.80695 4.60425 1.80695C5.26635 1.80695 5.80309 2.34369 5.80309 3.00579V7.40155C5.80309 8.72575 4.72961 9.79923 3.40541 9.79923C2.0812 9.79923 1.00772 8.72575 1.00772 7.40155V4.20464" stroke="#FF665C" stroke-width="2" stroke-linecap="round" stroke-linejoin="round"/>
</svg>
