<svg width="34" height="34" viewBox="0 0 34 34" fill="none" xmlns="http://www.w3.org/2000/svg">
<circle cx="17" cy="17" r="17" fill="#D9D9D9" fill-opacity="0.3"/>
<circle cx="22" cy="13" r="4" fill="#33363F"/>
<path fill-rule="evenodd" clip-rule="evenodd" d="M20 13C20 11.8954 20.8954 11 22 11C23.1046 11 24 11.8954 24 13H20ZM16 13C16 12.2987 16.1203 11.6256 16.3414 11H10C9.44772 11 9 11.4477 9 12C9 12.5523 9.44772 13 10 13H16ZM16.8027 16C17.2671 16.8028 17.9121 17.488 18.6822 18H10C9.44772 18 9 17.5523 9 17C9 16.4477 9.44772 16 10 16H16.8027ZM10 21C9.44772 21 9 21.4477 9 22C9 22.5523 9.44772 23 10 23H24C24.5523 23 25 22.5523 25 22C25 21.4477 24.5523 21 24 21H10Z" fill="#33363F"/>
</svg>
