<svg width="113" height="11" viewBox="0 0 113 11" fill="none" xmlns="http://www.w3.org/2000/svg">
<path d="M107.867 8.56615C107.631 8.56615 107.513 8.44816 107.513 8.21218V2.72559C107.513 2.48961 107.631 2.37162 107.867 2.37162H108.8C109.036 2.37162 109.153 2.48961 109.153 2.72559V3.06777H109.177C109.358 2.75706 109.588 2.54467 109.867 2.43062C110.147 2.31262 110.483 2.25363 110.876 2.25363C111.49 2.25363 111.997 2.44635 112.398 2.83178C112.799 3.21722 113 3.92123 113 4.94382V8.21218C113 8.44816 112.882 8.56615 112.646 8.56615H111.702C111.466 8.56615 111.348 8.44816 111.348 8.21218V5.36859C111.348 4.51119 111.289 3.9704 111.171 3.74621C111.053 3.52203 110.799 3.40994 110.41 3.40994C109.997 3.40994 109.686 3.57119 109.478 3.8937C109.27 4.21228 109.165 4.87696 109.165 5.88775V8.21218C109.165 8.44816 109.047 8.56615 108.811 8.56615H107.867Z" fill="black"/>
<path d="M100.552 6.91427C100.552 6.12767 100.928 5.55738 101.679 5.2034C102.43 4.84943 103.287 4.66065 104.251 4.63705V4.40107C104.251 4.03923 104.161 3.78358 103.98 3.63412C103.799 3.48467 103.547 3.40994 103.224 3.40994C102.996 3.40994 102.794 3.44337 102.617 3.51023C102.444 3.57316 102.292 3.64789 102.163 3.73442C102.037 3.81701 101.923 3.90157 101.82 3.9881C101.639 4.14542 101.49 4.15328 101.372 4.01169L100.882 3.40994C100.76 3.26049 100.79 3.1071 100.971 2.94978C101.108 2.82785 101.268 2.72166 101.449 2.6312C101.634 2.54074 101.877 2.45618 102.18 2.37752C102.483 2.29493 102.876 2.25363 103.36 2.25363C104.178 2.25363 104.806 2.44241 105.242 2.81999C105.683 3.19756 105.903 3.75408 105.903 4.48956V8.21218C105.903 8.44816 105.785 8.56615 105.549 8.56615H104.581C104.369 8.56615 104.263 8.44816 104.263 8.21218V8.03519H104.251C104.019 8.25937 103.74 8.42456 103.413 8.53075C103.091 8.63301 102.794 8.68414 102.522 8.68414C101.877 8.68414 101.388 8.52682 101.053 8.21218C100.719 7.8936 100.552 7.46097 100.552 6.91427ZM102.298 6.87888C102.298 7.01653 102.326 7.13649 102.381 7.23875C102.436 7.33707 102.522 7.40984 102.64 7.45703C102.758 7.50423 102.89 7.52783 103.036 7.52783C103.236 7.52783 103.431 7.5003 103.62 7.44523C103.808 7.39017 104.019 7.26038 104.251 7.05586V5.77566C103.59 5.85039 103.148 5.94675 102.924 6.06474C102.699 6.18273 102.538 6.30465 102.44 6.43051C102.345 6.55637 102.298 6.70582 102.298 6.87888Z" fill="black"/>
<path d="M96.5992 8.56615C96.3633 8.56615 96.2453 8.44816 96.2453 8.21218V2.72559C96.2453 2.48961 96.3633 2.37162 96.5992 2.37162H97.5314C97.7674 2.37162 97.8854 2.48961 97.8854 2.72559V3.20936H97.9089C98.0112 2.95764 98.1823 2.73543 98.4222 2.54271C98.6621 2.34999 98.9453 2.25363 99.2717 2.25363C99.4959 2.25363 99.6808 2.28116 99.8263 2.33622C99.964 2.38735 100.017 2.48174 99.9856 2.6194L99.8204 3.32145C99.785 3.47877 99.6788 3.52596 99.5018 3.46304C99.3996 3.42764 99.3012 3.40994 99.2068 3.40994C98.8293 3.40994 98.5166 3.63609 98.2688 4.08839C98.021 4.54069 97.8971 5.19947 97.8971 6.06474V8.21218C97.8971 8.44816 97.7792 8.56615 97.5432 8.56615H96.5992Z" fill="black"/>
<path d="M93.3427 8.56615C93.1067 8.56615 92.9887 8.44816 92.9887 8.21218V2.72559C92.9887 2.48961 93.1067 2.37162 93.3427 2.37162H94.2866C94.5226 2.37162 94.6406 2.48961 94.6406 2.72559V8.21218C94.6406 8.44816 94.5226 8.56615 94.2866 8.56615H93.3427ZM93.3427 1.46309C93.1067 1.46309 92.9887 1.3451 92.9887 1.10912V0.353973C92.9887 0.117991 93.1067 0 93.3427 0H94.2866C94.5226 0 94.6406 0.117991 94.6406 0.353973V1.10912C94.6406 1.3451 94.5226 1.46309 94.2866 1.46309H93.3427Z" fill="black"/>
<path d="M86.3104 10.926C86.0744 10.926 85.9565 10.808 85.9565 10.572V2.72559C85.9565 2.48961 86.0744 2.37162 86.3104 2.37162H87.2426C87.4392 2.37162 87.5454 2.48961 87.5611 2.72559L87.5847 3.06777H87.6083C87.8129 2.72953 88.041 2.50928 88.2927 2.40702C88.5444 2.30476 88.8472 2.25363 89.2012 2.25363C90.1255 2.25363 90.7744 2.57417 91.1481 3.21526C91.5256 3.85241 91.7144 4.60362 91.7144 5.46888C91.7144 6.33415 91.5256 7.08733 91.1481 7.72841C90.7744 8.36556 90.1255 8.68414 89.2012 8.68414C88.8472 8.68414 88.5444 8.63301 88.2927 8.53075C88.041 8.42849 87.8129 8.20824 87.6083 7.87H87.5847C87.6005 8.02732 87.6083 8.18464 87.6083 8.34197V10.572C87.6083 10.808 87.4903 10.926 87.2544 10.926H86.3104ZM87.6083 5.73436C87.6083 6.26532 87.7126 6.69796 87.921 7.03226C88.1334 7.36264 88.3871 7.52783 88.6821 7.52783C89.213 7.52783 89.5591 7.34297 89.7204 6.97327C89.8856 6.59963 89.9682 6.09817 89.9682 5.46888C89.9682 4.8396 89.8856 4.3401 89.7204 3.9704C89.5591 3.59676 89.213 3.40994 88.6821 3.40994C88.3871 3.40994 88.1334 3.57709 87.921 3.9114C87.7126 4.24178 87.6083 4.67244 87.6083 5.2034V5.73436Z" fill="black"/>
<path d="M75.9862 8.56615C75.7502 8.56615 75.6322 8.44816 75.6322 8.21218V2.72559C75.6322 2.48961 75.7502 2.37162 75.9862 2.37162H76.9183C77.1543 2.37162 77.2723 2.48961 77.2723 2.72559V3.06777H77.2959C77.41 2.81605 77.6027 2.61743 77.8741 2.47191C78.1455 2.32639 78.3991 2.25363 78.6351 2.25363C79.1071 2.25363 79.4729 2.36375 79.7324 2.584C79.9959 2.80425 80.1769 3.05007 80.2752 3.32145H80.2988C80.641 2.87701 80.9497 2.58794 81.225 2.45421C81.5043 2.32049 81.8602 2.25363 82.2928 2.25363C82.8749 2.25363 83.3646 2.44635 83.7618 2.83178C84.163 3.21722 84.3636 3.92123 84.3636 4.94382V8.21218C84.3636 8.44816 84.2456 8.56615 84.0096 8.56615H83.0657C82.8297 8.56615 82.7117 8.44816 82.7117 8.21218V5.36859C82.7117 4.51119 82.6527 3.9704 82.5347 3.74621C82.4207 3.52203 82.2161 3.40994 81.9212 3.40994C81.6459 3.40994 81.3941 3.57119 81.166 3.8937C80.9379 4.21621 80.8238 4.8809 80.8238 5.88775V8.21218C80.8238 8.44816 80.7059 8.56615 80.4699 8.56615H79.5259C79.29 8.56615 79.172 8.44816 79.172 8.21218V5.36859C79.172 4.51119 79.113 3.9704 78.995 3.74621C78.8809 3.52203 78.6764 3.40994 78.3814 3.40994C78.1061 3.40994 77.8544 3.57119 77.6263 3.8937C77.3982 4.21228 77.2841 4.87696 77.2841 5.88775V8.21218C77.2841 8.44816 77.1661 8.56615 76.9301 8.56615H75.9862Z" fill="black"/>
<path d="M68.6708 6.91427C68.6708 6.12767 69.0464 5.55738 69.7976 5.2034C70.5488 4.84943 71.4062 4.66065 72.3698 4.63705V4.40107C72.3698 4.03923 72.2793 3.78358 72.0984 3.63412C71.9175 3.48467 71.6658 3.40994 71.3433 3.40994C71.1152 3.40994 70.9126 3.44337 70.7356 3.51023C70.5626 3.57316 70.4111 3.64789 70.2814 3.73442C70.1555 3.81701 70.0414 3.90157 69.9392 3.9881C69.7583 4.14542 69.6088 4.15328 69.4908 4.01169L69.0011 3.40994C68.8792 3.26049 68.9087 3.1071 69.0896 2.94978C69.2273 2.82785 69.3866 2.72166 69.5675 2.6312C69.7524 2.54074 69.9962 2.45618 70.299 2.37752C70.6019 2.29493 70.9952 2.25363 71.479 2.25363C72.297 2.25363 72.9244 2.44241 73.3609 2.81999C73.8014 3.19756 74.0217 3.75408 74.0217 4.48956V8.21218C74.0217 8.44816 73.9037 8.56615 73.6677 8.56615H72.7002C72.4878 8.56615 72.3816 8.44816 72.3816 8.21218V8.03519H72.3698C72.1377 8.25937 71.8585 8.42456 71.5321 8.53075C71.2095 8.63301 70.9126 8.68414 70.6412 8.68414C69.9962 8.68414 69.5065 8.52682 69.1722 8.21218C68.8379 7.8936 68.6708 7.46097 68.6708 6.91427ZM70.417 6.87888C70.417 7.01653 70.4446 7.13649 70.4996 7.23875C70.5547 7.33707 70.6412 7.40984 70.7592 7.45703C70.8772 7.50423 71.009 7.52783 71.1545 7.52783C71.3551 7.52783 71.5498 7.5003 71.7385 7.44523C71.9273 7.39017 72.1377 7.26038 72.3698 7.05586V5.77566C71.709 5.85039 71.2666 5.94675 71.0424 6.06474C70.8182 6.18273 70.657 6.30465 70.5586 6.43051C70.4642 6.55637 70.417 6.70582 70.417 6.87888Z" fill="black"/>
<path d="M62.7004 8.56615C62.4251 8.56615 62.2875 8.41866 62.2875 8.12368V0.548658C62.2875 0.253681 62.4251 0.106192 62.7004 0.106192H63.6562C63.8921 0.106192 64.0101 0.253681 64.0101 0.548658V7.10306H67.4496C67.7445 7.10306 67.892 7.23088 67.892 7.48653V8.18268C67.892 8.43832 67.7445 8.56615 67.4496 8.56615H62.7004Z" fill="black"/>
<path d="M53.1019 3.55153C52.8698 3.55153 52.7538 3.4532 52.7538 3.25655V2.6666C52.7538 2.46995 52.8698 2.37162 53.1019 2.37162H53.503V2.16514C53.503 1.98815 53.5443 1.82689 53.6269 1.68137L54.0812 0.884933C54.1677 0.735477 54.27 0.66075 54.388 0.66075H54.8009C55.0369 0.66075 55.1549 0.778741 55.1549 1.01472V2.37162H56.1106C56.3427 2.37162 56.4587 2.46995 56.4587 2.6666V3.25655C56.4587 3.4532 56.3427 3.55153 56.1106 3.55153H55.1549V6.47771C55.1549 6.87888 55.1824 7.16795 55.2375 7.34494C55.2965 7.51799 55.4459 7.60452 55.6859 7.60452C55.8078 7.60452 55.9454 7.58486 56.0988 7.54553C56.2522 7.50226 56.3722 7.46097 56.4587 7.42164C56.5964 7.35871 56.6868 7.40394 56.7301 7.55732L56.9071 8.22987C56.9425 8.3636 56.8913 8.46192 56.7537 8.52485C56.6239 8.58385 56.4449 8.63694 56.2168 8.68414C55.9926 8.73527 55.7665 8.76083 55.5384 8.76083C54.9759 8.76083 54.4961 8.64481 54.0989 8.41276C53.7016 8.18071 53.503 7.70285 53.503 6.97917V3.55153H53.1019Z" fill="black"/>
<path d="M46.5829 8.56615C46.3469 8.56615 46.2289 8.44816 46.2289 8.21218V2.72559C46.2289 2.48961 46.3469 2.37162 46.5829 2.37162H47.515C47.751 2.37162 47.869 2.48961 47.869 2.72559V3.06777H47.8926C48.0735 2.75706 48.3036 2.54467 48.5828 2.43062C48.862 2.31262 49.1983 2.25363 49.5916 2.25363C50.2052 2.25363 50.7125 2.44635 51.1137 2.83178C51.5149 3.21722 51.7155 3.92123 51.7155 4.94382V8.21218C51.7155 8.44816 51.5975 8.56615 51.3615 8.56615H50.4176C50.1816 8.56615 50.0636 8.44816 50.0636 8.21218V5.36859C50.0636 4.51119 50.0046 3.9704 49.8866 3.74621C49.7686 3.52203 49.5149 3.40994 49.1256 3.40994C48.7126 3.40994 48.4019 3.57119 48.1934 3.8937C47.985 4.21228 47.8808 4.87696 47.8808 5.88775V8.21218C47.8808 8.44816 47.7628 8.56615 47.5268 8.56615H46.5829Z" fill="black"/>
<path d="M38.9724 5.46888C38.9724 4.47383 39.2202 3.68919 39.7158 3.11496C40.2153 2.54074 40.9193 2.25363 41.8278 2.25363C42.8819 2.25363 43.6645 2.52501 44.1758 3.06777C44.6871 3.61053 44.9428 4.48366 44.9428 5.68717C44.9428 5.92315 44.8327 6.04114 44.6124 6.04114H40.7187C40.7816 6.69402 40.9429 7.10503 41.2025 7.27415C41.462 7.44327 41.7629 7.52783 42.1051 7.52783C42.4315 7.52783 42.6813 7.48456 42.8543 7.39804C43.0274 7.31151 43.1729 7.19352 43.2909 7.04406C43.4246 6.87101 43.5898 6.84348 43.7865 6.96147L44.3764 7.32134C44.6085 7.46293 44.6419 7.63205 44.4767 7.8287C44.2368 8.11582 43.9556 8.33017 43.6331 8.47176C43.3106 8.61334 42.8012 8.68414 42.1051 8.68414C40.9763 8.68414 40.172 8.39703 39.6922 7.8228C39.2123 7.24858 38.9724 6.46394 38.9724 5.46888ZM40.7246 4.86123H43.2909C43.2909 4.43646 43.1847 4.09036 42.9723 3.82291C42.7599 3.55153 42.4217 3.41584 41.9576 3.41584C41.5879 3.41584 41.2949 3.54563 41.0786 3.80521C40.8623 4.06086 40.7443 4.41286 40.7246 4.86123Z" fill="black"/>
<path d="M29.3326 8.56615C29.0966 8.56615 28.9786 8.44816 28.9786 8.21218V2.72559C28.9786 2.48961 29.0966 2.37162 29.3326 2.37162H30.2647C30.5007 2.37162 30.6187 2.48961 30.6187 2.72559V3.06777H30.6423C30.7563 2.81605 30.949 2.61743 31.2204 2.47191C31.4918 2.32639 31.7455 2.25363 31.9815 2.25363C32.4534 2.25363 32.8192 2.36375 33.0788 2.584C33.3423 2.80425 33.5232 3.05007 33.6215 3.32145H33.6451C33.9873 2.87701 34.2961 2.58794 34.5714 2.45421C34.8506 2.32049 35.2066 2.25363 35.6392 2.25363C36.2213 2.25363 36.7109 2.44635 37.1082 2.83178C37.5093 3.21722 37.7099 3.92123 37.7099 4.94382V8.21218C37.7099 8.44816 37.5919 8.56615 37.356 8.56615H36.412C36.176 8.56615 36.0581 8.44816 36.0581 8.21218V5.36859C36.0581 4.51119 35.9991 3.9704 35.8811 3.74621C35.767 3.52203 35.5625 3.40994 35.2675 3.40994C34.9922 3.40994 34.7405 3.57119 34.5124 3.8937C34.2843 4.21621 34.1702 4.8809 34.1702 5.88775V8.21218C34.1702 8.44816 34.0522 8.56615 33.8162 8.56615H32.8723C32.6363 8.56615 32.5183 8.44816 32.5183 8.21218V5.36859C32.5183 4.51119 32.4593 3.9704 32.3413 3.74621C32.2273 3.52203 32.0228 3.40994 31.7278 3.40994C31.4525 3.40994 31.2008 3.57119 30.9726 3.8937C30.7445 4.21228 30.6305 4.87696 30.6305 5.88775V8.21218C30.6305 8.44816 30.5125 8.56615 30.2765 8.56615H29.3326Z" fill="black"/>
<path d="M21.9227 5.99394V2.72559C21.9227 2.48961 22.0407 2.37162 22.2767 2.37162H23.2206C23.4566 2.37162 23.5746 2.48961 23.5746 2.72559V5.56918C23.5746 6.42658 23.6336 6.96737 23.7516 7.19155C23.8696 7.41574 24.1174 7.52783 24.4949 7.52783C24.8961 7.52783 25.2009 7.36854 25.4094 7.04996C25.6178 6.72745 25.722 6.06081 25.722 5.05002V2.72559C25.722 2.48961 25.84 2.37162 26.076 2.37162H27.0199C27.2559 2.37162 27.3739 2.48961 27.3739 2.72559V8.21218C27.3739 8.44816 27.2559 8.56615 27.0199 8.56615H26.0878C25.8518 8.56615 25.7338 8.44816 25.7338 8.21218V7.87H25.7102C25.5293 8.18071 25.2992 8.39506 25.02 8.51305C24.7408 8.62711 24.4104 8.68414 24.0289 8.68414C23.4271 8.68414 22.9257 8.49142 22.5245 8.10598C22.1233 7.72055 21.9227 7.01653 21.9227 5.99394Z" fill="black"/>
<path d="M15.1972 5.46888C15.1972 4.46596 15.449 3.67935 15.9524 3.10906C16.4558 2.53877 17.2287 2.25363 18.2709 2.25363C18.8805 2.25363 19.3545 2.33426 19.6927 2.49551C20.0309 2.65676 20.3023 2.89275 20.5068 3.20346C20.6288 3.38831 20.6091 3.53383 20.4478 3.64002L19.8225 4.05299C19.6455 4.17098 19.4902 4.12575 19.3564 3.9173C19.2896 3.81504 19.1617 3.70492 18.973 3.58693C18.7842 3.46894 18.5502 3.40994 18.2709 3.40994C17.8265 3.40994 17.4941 3.56726 17.2739 3.8819C17.0536 4.19261 16.9435 4.72161 16.9435 5.46888C16.9435 6.21616 17.0536 6.74712 17.2739 7.06176C17.4941 7.37247 17.8265 7.52783 18.2709 7.52783C18.5895 7.52783 18.8471 7.46097 19.0438 7.32724C19.2404 7.19352 19.4253 7.02047 19.5983 6.80808C19.7478 6.62716 19.9051 6.6016 20.0703 6.73139L20.6189 7.16205C20.7841 7.29185 20.794 7.4649 20.6484 7.68122C20.495 7.90933 20.2335 8.13351 19.8638 8.35376C19.498 8.57401 18.9671 8.68414 18.2709 8.68414C17.2287 8.68414 16.4558 8.39899 15.9524 7.8287C15.449 7.25841 15.1972 6.47181 15.1972 5.46888Z" fill="black"/>
<path d="M8.08238 5.46888C8.08238 4.46596 8.34 3.67935 8.85523 3.10906C9.37439 2.53877 10.1453 2.25363 11.1679 2.25363C12.1904 2.25363 12.9593 2.53877 13.4746 3.10906C13.9937 3.67935 14.2533 4.46596 14.2533 5.46888C14.2533 6.47181 13.9937 7.25841 13.4746 7.8287C12.9593 8.39899 12.1904 8.68414 11.1679 8.68414C10.1453 8.68414 9.37439 8.39899 8.85523 7.8287C8.34 7.25841 8.08238 6.47181 8.08238 5.46888ZM9.82865 5.46888C9.82865 6.21616 9.94271 6.74712 10.1708 7.06176C10.4029 7.37247 10.7352 7.52783 11.1679 7.52783C11.6005 7.52783 11.9309 7.37247 12.159 7.06176C12.391 6.74712 12.507 6.21616 12.507 5.46888C12.507 4.72161 12.391 4.19261 12.159 3.8819C11.9309 3.56726 11.6005 3.40994 11.1679 3.40994C10.7352 3.40994 10.4029 3.56726 10.1708 3.8819C9.94271 4.19261 9.82865 4.72161 9.82865 5.46888Z" fill="black"/>
<path d="M0.412969 8.56615C0.137656 8.56615 0 8.41866 0 8.12368V0.548658C0 0.253681 0.137656 0.106192 0.412969 0.106192H2.47191C4.28111 0.106192 5.50428 0.471964 6.14143 1.20351C6.78252 1.93505 7.10306 2.97534 7.10306 4.32437C7.10306 5.6734 6.78252 6.71762 6.14143 7.45703C5.50428 8.19644 4.28111 8.56615 2.47191 8.56615H0.412969ZM1.72267 7.10306H2.35982C3.57906 7.10306 4.36763 6.87691 4.72554 6.42461C5.08345 5.96838 5.2624 5.2683 5.2624 4.32437C5.2624 3.38044 5.08345 2.6843 4.72554 2.23593C4.36763 1.78363 3.57906 1.55748 2.35982 1.55748H1.72267V7.10306Z" fill="black"/>
</svg>
