<svg width="32" height="32" viewBox="0 0 32 32" fill="none" xmlns="http://www.w3.org/2000/svg">
<path fill-rule="evenodd" clip-rule="evenodd" d="M18.6367 2.66602C18.6941 2.66602 18.7503 2.67086 18.8051 2.68015L18.9852 2.68122C19.2572 2.68122 19.5172 2.79188 19.7066 2.98788L26.4612 10.0239C26.6386 10.2092 26.7387 10.4585 26.7387 10.7159V22.9692C26.7599 26.3145 24.1519 29.0332 20.8012 29.1532H9.94791C6.69427 29.0833 4.08484 26.4541 4.00439 23.2335L4.00391 8.65321C4.08257 5.34522 6.81324 2.68122 10.0959 2.68122L18.4683 2.68015C18.5231 2.67086 18.5793 2.66602 18.6367 2.66602ZM17.6359 4.68068L10.0999 4.68122C7.89057 4.68122 6.05591 6.47055 6.00391 8.67722V22.9692C5.95591 25.2372 7.74257 27.1039 9.98924 27.1532H20.7666C22.9919 27.0732 24.7532 25.2372 24.7387 22.9759L24.7386 11.9767L22.0607 11.978C19.6194 11.9713 17.6367 9.98202 17.6367 7.54468L17.6359 4.68068ZM14.8578 12.2112C15.1338 12.2112 15.3838 12.3232 15.5648 12.5042L15.5662 12.5051L18.6942 15.6464C19.0835 16.0384 19.0822 16.6704 18.6915 17.0597C18.2995 17.4491 17.6662 17.4491 17.2768 17.0571L15.8572 15.6313L15.8578 21.2659C15.8578 21.8179 15.4098 22.2659 14.8578 22.2659C14.3058 22.2659 13.8578 21.8179 13.8578 21.2659L13.8572 15.6313L12.4395 17.0571C12.2448 17.2544 11.9875 17.3517 11.7315 17.3517C11.4768 17.3517 11.2208 17.2544 11.0262 17.0597C10.6355 16.6704 10.6328 16.0384 11.0235 15.6464L14.1488 12.5051L14.1934 12.464C14.2127 12.4468 14.2327 12.4304 14.2533 12.4147L14.1488 12.5051C14.186 12.4678 14.2261 12.4341 14.2684 12.4042C14.433 12.2828 14.6371 12.2112 14.8578 12.2112ZM19.6359 5.80202L19.6367 7.54468C19.6367 8.88335 20.7247 9.97402 22.0634 9.97802L23.6426 9.97668L19.6359 5.80202Z" fill="#282A37"/>
</svg>
